<svg width="84" height="78" viewBox="0 0 84 78" fill="none" xmlns="http://www.w3.org/2000/svg">
<path fill-rule="evenodd" clip-rule="evenodd" d="M56.975 54.0733V56.8436H55.6571V50.8211H56.975V53.0751H59.1704V50.8211H60.4882V56.8436H59.1704V54.0733H56.975ZM50.0757 53.8324C50.0757 53.111 49.9553 52.5705 49.7158 52.212C49.4748 51.852 49.1423 51.6728 48.7164 51.6728C48.2876 51.6728 47.9535 51.8535 47.7154 52.2134C47.476 52.5733 47.3569 53.1124 47.3569 53.8324C47.3569 54.5537 47.476 55.0928 47.7154 55.4527C47.9535 55.8127 48.2876 55.9933 48.7164 55.9933C49.1423 55.9933 49.4748 55.8141 49.7158 55.4541C49.9553 55.0956 50.0757 54.5551 50.0757 53.8324ZM51.6073 53.8324C51.6073 54.2482 51.5326 54.694 51.3821 55.1717C51.2316 55.6492 50.9404 56.0722 50.5089 56.4394C50.0787 56.8077 49.4806 56.9913 48.7164 56.9913C47.952 56.9913 47.3541 56.8077 46.9239 56.4394C46.4923 56.0722 46.2026 55.6492 46.052 55.1717C45.9014 54.694 45.8255 54.2482 45.8255 53.8324C45.8255 53.5498 45.8643 53.2372 45.9415 52.8931C46.0176 52.549 46.1581 52.2061 46.3618 51.8663C46.5639 51.528 46.8608 51.2441 47.2493 51.016C47.6394 50.7879 48.1284 50.6748 48.7164 50.6748C49.3043 50.6748 49.7931 50.7879 50.1832 51.0145C50.5718 51.2425 50.8702 51.5265 51.0752 51.8706C51.2802 52.2134 51.4194 52.5562 51.4953 52.8974C51.5699 53.2387 51.6073 53.5498 51.6073 53.8324ZM40.4979 56.8436V50.8211H41.8157V56.8436H40.4979ZM33.3047 53.884H33.8828C34.6269 53.884 34.9997 53.5457 34.9997 52.8688C34.9997 52.169 34.6269 51.819 33.8828 51.819H33.3047V53.884ZM33.3047 54.8819V56.8436H31.987V50.8211H33.8368C34.2913 50.8211 34.7159 50.8698 35.1058 50.9659C35.4972 51.0619 35.8329 51.2641 36.1124 51.571C36.3921 51.8779 36.5311 52.3195 36.5311 52.8946C36.5311 53.5055 36.3348 53.9887 35.9418 54.3457C35.549 54.7027 34.9121 54.8819 34.0288 54.8819H33.3047ZM25.1997 52.6808L24.477 54.5981H25.9224L25.1997 52.6808ZM24.1085 55.5962L23.6439 56.8436H22.3188L24.5918 50.8211H25.8106L28.0835 56.8436H26.7585L26.2938 55.5962H24.1085ZM57.3248 57.1935H55.3073V50.4712H57.3248V52.7253H58.8205V50.4712H60.8381V57.1935H58.8205V54.4231H57.3248V57.1935ZM49.7255 53.769C49.7197 53.1774 49.6323 52.2186 48.9377 52.0469C48.7996 52.0128 48.6576 52.0117 48.5186 52.0415C47.876 52.1795 47.7469 52.9803 47.7149 53.5278C47.6773 54.1723 47.7056 55.3739 48.4443 55.6058C48.6258 55.6628 48.8298 55.6616 49.0096 55.5986C49.6734 55.366 49.7314 54.375 49.7255 53.769ZM51.9569 53.8755C51.9419 55.1034 51.4538 56.3738 50.3203 56.9893C49.6347 57.3615 48.7414 57.4117 47.9886 57.2822C47.6335 57.2211 47.3104 57.1144 47.0021 56.9263C45.8874 56.2461 45.4101 54.8762 45.4818 53.6226C45.559 52.2726 46.2062 50.9428 47.5782 50.4888C48.2803 50.2565 49.1585 50.262 49.854 50.4883C51.2975 50.958 51.9742 52.4523 51.9569 53.8755ZM40.1481 50.4712H42.1655V57.1935H40.1481V50.4712ZM33.6545 52.1688V53.5342C33.9358 53.5342 34.3212 53.5675 34.5199 53.3352C34.6975 53.1276 34.7052 52.6232 34.5323 52.3952C34.3361 52.1363 33.941 52.1688 33.6545 52.1688ZM33.6545 57.1935H31.6371V50.4712C32.3853 50.4712 33.1335 50.4684 33.8817 50.4714C34.8624 50.4752 35.9276 50.6564 36.5231 51.5288C36.8766 52.0466 36.9467 52.7883 36.8386 53.3907C36.755 53.8564 36.5307 54.2901 36.1765 54.6051C35.4815 55.2233 34.5305 55.2318 33.6545 55.2318V57.1935ZM24.9827 54.2482H25.4167L25.1997 53.6726L24.9827 54.2482ZM23.8869 57.1935H21.8129L24.3498 50.4712H26.0525L28.5894 57.1935H26.5155L26.0508 55.9461H24.3515L23.8869 57.1935ZM40.1975 24.7412L39.7784 25.5415L37.1948 23.9316C35.5489 23.9282 34.1609 23.289 33.0749 22.24C34.4247 22.7648 35.8745 23.1392 37.5441 23.1804L40.3771 24.521L40.5766 24.1009L40.1178 23.6805L40.9156 22.8803L42.1329 24.0807L42.4719 23.9206L40.7563 21.9398L40.0377 22.42L39.6688 23.2821L37.5039 22.4801C35.9247 22.4262 34.4543 22.117 33.1147 21.4995L34.7308 21.3394C36.8671 19.0632 39.178 18.501 41.6339 19.3586C42.2473 19.9178 42.9157 19.9243 43.6092 19.6788L46.5568 21.5857C47.2905 21.8746 49.9936 22.9142 50.9409 22.9465C52.0414 22.984 53.1429 23.3889 54.2441 24.1614C53.2161 24.1064 52.4086 24.2716 51.8216 24.658C50.7932 25.8544 50.7936 27.1242 51.8216 28.4675C54.9317 32.0252 56.2517 35.8405 56.2809 39.8409L59.4188 45.0307C57.8584 44.4232 56.7394 43.448 56.0607 42.1047C55.4772 40.8263 54.6181 40.1376 53.5699 39.8522L55.7303 39.7306C53.6066 35.3977 50.751 32.0454 46.867 30.0688C45.3389 29.6082 44.1982 28.4685 43.2385 27.0126L44.0492 30.5263C42.7168 30.1062 41.288 28.2947 40.1975 24.7412ZM54.3265 40.9239C53.5355 40.2816 52.4193 40.217 51.3208 40.3241C52.3818 39.5767 53.3751 38.9877 54.4368 38.9657C53.1099 36.3103 51.1594 34.2852 48.9502 32.5122C48.9029 32.4743 48.8556 32.4373 48.8082 32.4012C49.7089 33.8048 50.1595 35.2477 50.1595 36.7304C50.1595 37.7213 49.9496 38.5354 49.5299 39.1722C49.1105 39.8093 48.4267 40.2338 47.478 40.4461V40.9239H54.3265ZM56.5395 36.5088C56.6952 37.5434 56.762 38.6114 56.7398 39.7131C56.9763 40.1295 57.2095 40.5335 57.4392 40.9239H59.9V40.4461C58.7693 40.1631 57.9302 39.5084 57.3827 38.4821C57.0911 37.845 56.8177 37.2082 56.5618 36.571L56.5395 36.5088ZM52.5716 25.4348C51.994 25.996 51.9867 26.9029 52.6754 28.0289C53.3006 28.7772 53.8535 29.5527 54.3345 30.355L52.5716 25.4348ZM39.6275 18.0657C40.3454 18.0462 41.0835 18.1495 41.8379 18.3825C41.9115 18.4714 42.02 18.5573 42.1501 18.6366L40.8383 14.9683L39.6275 18.0657ZM33.4039 20.5252L34.658 20.4206C35.5756 19.5103 36.5578 18.8507 37.5933 18.4647L40.9112 9.97739L44.2728 19.3779C45.4544 20.1653 46.1608 20.5835 46.8117 20.9661C47.997 21.4455 49.7845 22.0926 50.3048 22.1191C50.7127 22.14 51.0812 22.1736 51.4201 22.221L47.2042 10.4552C47.0583 10.0657 46.9398 9.69436 46.8488 9.34025C46.7574 8.98648 46.7117 8.66806 46.7117 8.38507C46.7117 7.39412 47.2407 6.75698 48.2986 6.47398V5.99618H36.1499V6.47398C36.661 6.58011 37.0715 6.77484 37.3816 7.05787C37.6914 7.3409 37.8464 7.7125 37.8464 8.17243C37.8464 8.66806 37.7828 9.11044 37.6547 9.49959C37.5273 9.88875 37.3174 10.4727 37.0258 11.2513L33.4039 20.5252ZM38.0353 25.5986L36.2836 24.4963C33.6624 23.68 33.0453 23.15 32.5776 22.6412L28.2154 33.8109C27.8139 34.8018 27.4491 35.6512 27.1208 36.3588C26.6464 37.3497 26.1996 38.1283 25.7798 38.6944C25.3601 39.2608 24.9411 39.6588 24.5214 39.8886C24.1017 40.1188 23.5634 40.3046 22.9071 40.4461V40.9239H34.0706V40.4461C33.2315 40.4461 32.5201 40.1806 31.9366 39.6499C31.3527 39.1192 31.0607 38.4289 31.0607 37.5798C31.0607 37.0134 31.1339 36.4474 31.2799 35.881C31.4255 35.315 31.6443 34.6249 31.9366 33.8109L35.1103 25.3711C36.1174 25.3711 37.0922 25.4471 38.0353 25.5986ZM40.4457 28.0213C41.794 30.3252 43.2676 31.3668 44.8776 31.6742L44.7145 30.482C45.5434 31.1608 46.2978 31.9289 46.9455 32.7848C47.6103 33.6635 48.1557 34.707 48.3319 35.8054C48.4473 36.5247 48.5125 37.6059 48.0427 38.2475C47.8495 38.5113 47.5178 38.6353 47.2113 38.7112C46.7187 38.833 46.2229 38.9418 45.7288 39.0572V42.6731H55.5502C56.512 44.1795 57.2078 44.8032 58.4183 45.3742C59.4151 45.8444 60.4647 46.1861 61.4972 46.5739C60.6372 45.802 59.6248 44.4446 58.5039 42.6731H61.6492V39.0969C61.1463 38.9649 60.6282 38.8565 60.1347 38.6944C59.5969 38.5178 59.1992 38.2055 58.9471 37.697C58.6696 37.1373 58.4204 36.5642 58.2081 35.9766C56.8663 32.2619 55.5333 28.5439 54.203 24.825C54.8482 24.7717 55.6322 24.8372 56.5364 25.04C55.2798 24.006 54.434 23.2944 53.4895 22.8297C51.9432 18.5041 50.3989 14.1778 48.8471 9.85421C48.718 9.49469 48.5864 9.12635 48.5069 8.75218C48.4754 8.60358 48.4437 8.42539 48.4692 8.27388C48.5276 8.23843 48.5894 8.21146 48.6549 8.19242C49.1182 8.05748 49.5834 7.92912 50.0478 7.79748V4.24695H34.4007V7.88773L35.8196 8.19213C35.9138 8.21234 36.0085 8.23991 36.0955 8.28207C36.089 8.51118 36.0628 8.73963 35.9914 8.95798C35.8144 9.49912 35.6209 10.0361 35.4143 10.5666C32.4804 18.1019 29.547 25.6374 26.5902 33.1638C26.0529 34.5316 25.476 35.9238 24.6979 37.1744C24.477 37.5295 24.233 37.8847 23.9243 38.1697C23.3248 38.723 21.9367 38.9708 21.1578 39.0381V42.6731H35.8198V38.714L34.0271 38.6964C33.4227 38.6905 32.8556 38.3561 32.8138 37.6977C32.7682 36.9781 32.9723 36.2664 33.1834 35.5862C33.2993 35.2129 33.4202 34.841 33.5569 34.4747C34.4674 32.0348 35.3895 29.5992 36.3058 27.1615C37.7209 27.2604 39.1187 27.5393 40.4457 28.0213ZM20.5833 1.4926H62.2234V48.7732H20.5833V1.4926ZM19.1733 -0.000488281H63.6337V58.8929H19.1733V-0.000488281Z" fill="#006EA5"/>
<path fill-rule="evenodd" clip-rule="evenodd" d="M67.1898 5.82677V2.06121H68.8595C68.9237 2.06121 69.0057 2.06465 69.1056 2.07142C69.2054 2.07818 69.3094 2.09678 69.4176 2.1272C69.5868 2.17461 69.7424 2.26843 69.8845 2.40887C70.0267 2.54925 70.0977 2.77004 70.0977 3.07119C70.0977 3.31472 70.0368 3.51942 69.915 3.68522C69.7932 3.85095 69.6409 3.95755 69.4583 4.00489V4.02014C69.7188 4.09793 69.8735 4.22822 69.9226 4.41087C69.9717 4.59362 69.9996 4.79996 70.0064 5.03002C70.0064 5.05706 70.0072 5.08246 70.0088 5.10614C70.0106 5.12986 70.0114 5.15354 70.0114 5.17717C70.0148 5.33961 70.0224 5.46051 70.0342 5.54007C70.0461 5.61954 70.0689 5.69145 70.1028 5.75577C70.1095 5.76589 70.1171 5.7769 70.1256 5.78873C70.134 5.80052 70.1434 5.81323 70.1535 5.82677H69.6206C69.6139 5.82 69.608 5.81241 69.6029 5.80397C69.5978 5.79549 69.5936 5.78784 69.5903 5.78107C69.5463 5.71346 69.5191 5.63734 69.509 5.55275C69.4989 5.46816 69.4904 5.34467 69.4836 5.18226C69.4836 5.16872 69.4836 5.15433 69.4836 5.13918C69.4836 5.12394 69.4836 5.10782 69.4836 5.0909C69.4769 4.85072 69.4413 4.64691 69.377 4.47943C69.3128 4.31192 69.1115 4.22822 68.7731 4.22822H67.6973V5.82677H67.1898ZM67.6973 2.48755V3.807H68.8239C69.0404 3.807 69.2019 3.76469 69.3085 3.68012C69.4151 3.59553 69.4887 3.50082 69.5293 3.39596C69.5463 3.34855 69.5581 3.30115 69.5649 3.25384C69.5716 3.20644 69.575 3.16422 69.575 3.12697C69.575 2.89014 69.5039 2.72438 69.3619 2.6296C69.2198 2.53489 69.0151 2.48755 68.7478 2.48755H67.6973ZM68.5644 0.740967C70.3649 0.740967 71.8333 2.20936 71.8333 4.00992C71.8333 5.81048 70.3649 7.27887 68.5644 7.27887C66.7638 7.27887 65.2954 5.81048 65.2954 4.00992C65.2954 2.20936 66.7638 0.740967 68.5644 0.740967ZM68.5644 1.14208C70.1439 1.14208 71.4322 2.43037 71.4322 4.00992C71.4322 5.58947 70.1439 6.87777 68.5644 6.87777C66.9848 6.87777 65.6965 5.58947 65.6965 4.00992C65.6965 2.43037 66.9848 1.14208 68.5644 1.14208Z" fill="#006EA5"/>
<path fill-rule="evenodd" clip-rule="evenodd" d="M79.4964 71.5062C79.4964 70.5127 79.8332 70.0001 80.7467 70.0001C81.7244 70.0001 82.0447 70.3526 82.0447 71.3304C82.0447 71.7624 82.0286 72.1955 81.7244 72.3399C81.5961 72.4039 80.7627 72.7725 80.2018 72.9809C78.7113 73.5578 78.0704 74.1027 78.0704 75.6252C78.0704 77.1797 78.7754 77.9839 80.2658 77.9839C81.0834 77.9839 81.8685 77.3564 82.1573 76.603H82.1891C82.3815 77.7572 82.7657 77.8555 83.5033 77.8555C83.7113 77.8555 83.9197 77.8076 84.0003 77.7572V76.8594C83.9359 76.8755 83.8079 76.8917 83.7278 76.8917C83.407 76.8917 83.2627 76.603 83.2627 76.2024V71.1542C83.2627 70.0001 82.5899 68.974 80.875 68.974C79.2723 68.974 78.4068 69.7438 78.4068 71.5062H79.4964ZM82.0447 73.0932V75.1606C82.0447 76.0418 81.7405 76.8917 80.4742 76.8917C79.657 76.8917 79.3363 76.3303 79.3363 75.5769C79.3363 73.9264 80.7787 73.8303 82.0447 73.0932ZM70.9705 69.1986V75.8016C70.9705 77.308 71.7555 77.9999 73.0379 77.9999C73.8555 77.9999 74.6406 77.5165 75.0574 76.6353H75.0892V77.7572H76.3072V69.1986H75.0892V74.6958C75.0892 76.4747 74.128 76.9718 73.278 76.9718C72.4126 76.9718 72.1884 76.5709 72.1884 75.8494V69.1986H70.9705ZM67.236 76.2184V77.7572H68.6303V76.2184H67.236ZM60.6325 69.1986H59.4151V77.7572H60.6325V71.843C60.6325 70.8174 61.338 70.0001 62.3796 70.0001C63.3731 70.0001 63.6616 70.609 63.6616 71.4905V77.7572H64.8801V71.1542C64.8801 69.6472 64.0464 68.974 62.7648 68.974C61.851 68.974 61.1456 69.4388 60.6487 70.1441H60.6325V69.1986ZM54.4303 70.0001C55.7123 70.0001 56.2253 70.9775 56.2253 73.5736C56.2253 75.5932 55.8728 76.9555 54.4303 76.9555C53.02 76.9555 52.6354 75.5932 52.6354 73.5736C52.6354 70.9775 53.1323 70.0001 54.4303 70.0001ZM54.4303 68.974C52.315 68.974 51.3695 70.5927 51.3695 73.4457C51.3695 76.9555 52.5874 77.9839 54.4303 77.9839C56.3053 77.9839 57.4912 76.9555 57.4912 73.4617C57.4912 70.5927 56.546 68.974 54.4303 68.974ZM49.4461 67.756V66.2173H48.2282V67.756H49.4461ZM49.4461 69.1986H48.2282V77.7572H49.4461V69.1986ZM44.4457 69.1986H43.2277V77.7572H44.4457V72.564C44.4457 71.1859 45.1668 70.2565 46.417 70.2565C46.5777 70.2565 46.7533 70.2725 46.9296 70.3043V69.1186C46.8016 69.1023 46.7055 69.0863 46.5932 69.0863C45.5193 69.0863 44.9105 69.5832 44.4614 70.5927H44.4457V69.1986ZM37.2178 71.5062C37.2178 70.5127 37.5546 70.0001 38.4677 70.0001C39.4455 70.0001 39.7661 70.3526 39.7661 71.3304C39.7661 71.7624 39.75 72.1955 39.4455 72.3399C39.3171 72.4039 38.4841 72.7725 37.9228 72.9809C36.4324 73.5578 35.7914 74.1027 35.7914 75.6252C35.7914 77.1797 36.4964 77.9839 37.9868 77.9839C38.8045 77.9839 39.5894 77.3564 39.8784 76.603H39.9101C40.1025 77.7572 40.4871 77.8555 41.2247 77.8555C41.4328 77.8555 41.6407 77.8076 41.7213 77.7572V76.8594C41.6568 76.8755 41.5289 76.8917 41.4488 76.8917C41.1281 76.8917 40.9837 76.603 40.9837 76.2024V71.1542C40.9837 70.0001 40.311 68.974 38.5961 68.974C36.9933 68.974 36.1279 69.7438 36.1279 71.5062H37.2178ZM39.7661 73.0932V75.1606C39.7661 76.0418 39.4615 76.8917 38.1953 76.8917C37.3779 76.8917 37.0573 76.3303 37.0573 75.5769C37.0573 73.9264 38.4998 73.8303 39.7661 73.0932ZM32.5378 76.2184V77.7572H33.9321V76.2184H32.5378ZM21.3992 69.1986L23.4023 77.7572H24.829L26.159 70.4649H26.1916L27.5531 77.7572H28.996L30.919 69.1986H29.7651L28.2747 76.7311H28.2429L26.7843 69.1986H25.534L24.172 76.7311H24.1397L22.5849 69.1986H21.3992ZM11.1262 69.1986L13.1292 77.7572H14.5559L15.8859 70.4649H15.918L17.28 77.7572H18.7226L20.6456 69.1986H19.492L18.0016 76.7311H17.9693L16.5106 69.1986H15.2609L13.8985 76.7311H13.8668L12.3119 69.1986H11.1262ZM0.852539 69.1986L2.85609 77.7572H4.28249L5.61227 70.4649H5.64488L7.00657 77.7572H8.44954L10.3725 69.1986H9.21836L7.72847 76.7311H7.69621L6.23756 69.1986H4.98784L3.62545 76.7311H3.5932L2.03876 69.1986H0.852539Z" fill="#006EA5"/>
</svg>
