<svg width="76" height="76" viewBox="0 0 76 76" fill="none" xmlns="http://www.w3.org/2000/svg">
<path d="M33.7511 8.4277C35.5097 4.93939 40.4903 4.93939 42.2489 8.4277C43.5279 10.9645 46.7304 11.8226 49.1065 10.2652C52.3737 8.12354 56.6869 10.6138 56.4658 14.5141C56.305 17.3505 58.6495 19.695 61.4859 19.5342C65.3862 19.3131 67.8765 23.6263 65.7348 26.8935C64.1774 29.2696 65.0355 32.4721 67.5723 33.7511C71.0606 35.5097 71.0606 40.4903 67.5723 42.2489C65.0355 43.5279 64.1774 46.7304 65.7348 49.1065C67.8765 52.3737 65.3862 56.6869 61.4859 56.4658C58.6495 56.305 56.305 58.6495 56.4658 61.4859C56.6869 65.3862 52.3737 67.8765 49.1065 65.7348C46.7304 64.1774 43.5279 65.0355 42.2489 67.5723C40.4903 71.0606 35.5097 71.0606 33.7511 67.5723C32.4721 65.0355 29.2696 64.1774 26.8935 65.7348C23.6263 67.8765 19.3131 65.3862 19.5342 61.4859C19.695 58.6495 17.3505 56.305 14.5141 56.4658C10.6138 56.6869 8.12354 52.3737 10.2652 49.1065C11.8226 46.7304 10.9645 43.5279 8.4277 42.2489C4.93939 40.4903 4.93939 35.5097 8.4277 33.7511C10.9645 32.4721 11.8226 29.2696 10.2652 26.8935C8.12354 23.6263 10.6138 19.3131 14.5141 19.5342C17.3505 19.695 19.695 17.3505 19.5342 14.5141C19.3131 10.6138 23.6263 8.12354 26.8935 10.2652C29.2696 11.8226 32.4721 10.9645 33.7511 8.4277Z" fill="url(#paint0_radial_129_6968)"/>
<path d="M49 31L35 44.7586L28 37.8793" stroke="#222222" stroke-width="1.44828" stroke-linecap="round" stroke-linejoin="round"/>
<defs>
<radialGradient id="paint0_radial_129_6968" cx="0" cy="0" r="1" gradientUnits="userSpaceOnUse" gradientTransform="translate(38 38) rotate(90) scale(38)">
<stop stop-color="white"/>
<stop offset="1" stop-color="#CDCDCD"/>
</radialGradient>
</defs>
</svg>
