<svg width="26" height="26" viewBox="0 0 26 26" fill="none" xmlns="http://www.w3.org/2000/svg">
<path d="M1.00049 13.1279C1.00049 7.47151 1.00049 4.64203 2.75754 2.88498C4.51459 1.12793 7.3428 1.12793 13.0005 1.12793C18.6569 1.12793 21.4864 1.12793 23.2434 2.88498C25.0005 4.64203 25.0005 7.47025 25.0005 13.1279C25.0005 18.7844 25.0005 21.6138 23.2434 23.3709C21.4864 25.1279 18.6582 25.1279 13.0005 25.1279C7.34407 25.1279 4.51459 25.1279 2.75754 23.3709C1.00049 21.6138 1.00049 18.7856 1.00049 13.1279Z" stroke="white" stroke-width="1.5" stroke-linecap="round" stroke-linejoin="round"/>
<path d="M19.224 8.10864H15.504C14.8705 8.10863 14.2627 8.35905 13.8131 8.80532C13.3635 9.25159 13.1086 9.85751 13.104 10.491L12.9953 25.0362M10.5776 15.6573H16.6446" stroke="white" stroke-width="1.5" stroke-linecap="round" stroke-linejoin="round"/>
</svg>
