<svg width="26" height="26" viewBox="0 0 26 26" fill="none" xmlns="http://www.w3.org/2000/svg">
<path d="M1.00049 13.1279C1.00049 7.47151 1.00049 4.64203 2.75754 2.88498C4.51459 1.12793 7.3428 1.12793 13.0005 1.12793C18.6569 1.12793 21.4864 1.12793 23.2434 2.88498C25.0005 4.64203 25.0005 7.47025 25.0005 13.1279C25.0005 18.7844 25.0005 21.6138 23.2434 23.3709C21.4864 25.1279 18.6582 25.1279 13.0005 25.1279C7.34407 25.1279 4.51459 25.1279 2.75754 23.3709C1.00049 21.6138 1.00049 18.7856 1.00049 13.1279Z" stroke="white" stroke-width="1.5" stroke-linecap="round" stroke-linejoin="round"/>
<path d="M19.9581 6.18066H19.9455M18.6848 13.128C18.6848 14.6356 18.086 16.0814 17.02 17.1474C15.954 18.2134 14.5082 18.8122 13.0006 18.8122C11.4931 18.8122 10.0473 18.2134 8.98127 17.1474C7.91528 16.0814 7.31641 14.6356 7.31641 13.128C7.31641 11.6205 7.91528 10.1747 8.98127 9.10869C10.0473 8.04269 11.4931 7.44382 13.0006 7.44382C14.5082 7.44382 15.954 8.04269 17.02 9.10869C18.086 10.1747 18.6848 11.6205 18.6848 13.128Z" stroke="white" stroke-width="1.5" stroke-linecap="round" stroke-linejoin="round"/>
</svg>
