<svg width="26" height="26" viewBox="0 0 26 26" fill="none" xmlns="http://www.w3.org/2000/svg">
<path d="M1.00049 13.1279C1.00049 7.47151 1.00049 4.64203 2.75754 2.88498C4.51459 1.12793 7.3428 1.12793 13.0005 1.12793C18.6569 1.12793 21.4864 1.12793 23.2434 2.88498C25.0005 4.64203 25.0005 7.47025 25.0005 13.1279C25.0005 18.7844 25.0005 21.6138 23.2434 23.3709C21.4864 25.1279 18.6582 25.1279 13.0005 25.1279C7.34407 25.1279 4.51459 25.1279 2.75754 23.3709C1.00049 21.6138 1.00049 18.7856 1.00049 13.1279Z" stroke="white" stroke-width="1.5" stroke-linecap="round" stroke-linejoin="round"/>
<path d="M11.1516 11.875C10.1158 11.7285 7.7537 11.9698 6.59665 14.1108C5.4396 16.2519 6.60549 18.4801 7.33433 19.3264C8.05307 20.1184 10.3381 21.6178 12.7621 20.1538C13.3634 19.7913 14.1124 19.5197 14.9613 16.6839L14.8628 5.52515C14.6985 6.7542 16.0564 9.63672 19.9204 9.97778" stroke="white" stroke-width="1.5" stroke-linecap="round" stroke-linejoin="round"/>
</svg>
